<svg xmlns="http://www.w3.org/2000/svg" xmlns:xlink="http://www.w3.org/1999/xlink" width="379.509" height="255.935" viewBox="0 0 379.509 255.935">
  <defs>
    <filter id="Ellipse_2410" x="270.509" y="75.468" width="34" height="34" filterUnits="userSpaceOnUse">
      <feOffset dy="3" input="SourceAlpha"/>
      <feGaussianBlur stdDeviation="3" result="blur"/>
      <feFlood flood-opacity="0.161"/>
      <feComposite operator="in" in2="blur"/>
      <feComposite in="SourceGraphic"/>
    </filter>
    <filter id="Ellipse_2447" x="270.509" y="108.468" width="34" height="34" filterUnits="userSpaceOnUse">
      <feOffset dy="3" input="SourceAlpha"/>
      <feGaussianBlur stdDeviation="3" result="blur-2"/>
      <feFlood flood-opacity="0.161"/>
      <feComposite operator="in" in2="blur-2"/>
      <feComposite in="SourceGraphic"/>
    </filter>
  </defs>
  <g id="Group_26334" data-name="Group 26334" transform="translate(-1264.532 -360.032)">
    <g id="Group_24011" data-name="Group 24011" transform="translate(1544.04 441.764)">
      <text id="Google_Chrome" data-name="Google Chrome" transform="translate(23.001 12.737)" fill="#43425d" font-size="14" font-family="SegoeUI-Semibold, Segoe UI" font-weight="600"><tspan x="0" y="0">Normal </tspan><tspan y="0" fill="#000">(06)</tspan></text>
      <text id="Google_Chrome-2" data-name="Google Chrome" transform="translate(23.001 45.737)" fill="#43425d" font-size="14" font-family="SegoeUI-Semibold, Segoe UI" font-weight="600"><tspan x="0" y="0">High </tspan><tspan y="0" fill="#000">(04)</tspan></text>
      <g transform="matrix(1, 0, 0, 1, -279.51, -81.73)" filter="url(#Ellipse_2410)">
        <g id="Ellipse_2410-2" data-name="Ellipse 2410" transform="translate(279.51 81.47)" fill="#405b81" stroke="#fff" stroke-width="3">
          <circle cx="8" cy="8" r="8" stroke="none"/>
          <circle cx="8" cy="8" r="6.5" fill="none"/>
        </g>
      </g>
      <g transform="matrix(1, 0, 0, 1, -279.51, -81.73)" filter="url(#Ellipse_2447)">
        <g id="Ellipse_2447-2" data-name="Ellipse 2447" transform="translate(279.51 114.47)" fill="#938a19" stroke="#fff" stroke-width="3">
          <circle cx="8" cy="8" r="8" stroke="none"/>
          <circle cx="8" cy="8" r="6.5" fill="none"/>
        </g>
      </g>
    </g>
    <g id="Group_26333" data-name="Group 26333" transform="translate(1368.04 449.366)">
      <text id="_10" data-name="10" transform="translate(24 68.1)" fill="#939393" font-size="42" font-family="SegoeUI-Bold, Segoe UI" font-weight="700"><tspan x="-24.158" y="0">10</tspan></text>
      <text id="Total" transform="translate(25 22.1)" fill="#555" font-size="22" font-family="SegoeUI-Bold, Segoe UI" font-weight="700"><tspan x="-25.507" y="0">Total</tspan></text>
    </g>
    <g id="Ring_Chart2" data-name="Ring Chart2" transform="translate(1264.036 360.371)">
      <path id="Path_19187" data-name="Path 19187" d="M4.089-127.935A128,128,0,0,1,122.012-38.692,128,128,0,0,1,77.068,102.2,128,128,0,0,1-70.75,106.67l26.079-36.716a83,83,0,0,0,95.027-3.974A83,83,0,0,0,79.261-24.632,83,83,0,0,0,4.089-82.9Z" transform="translate(128.504 127.596)" fill="#405b81"/>
      <path id="Path_19188" data-name="Path 19188" d="M-77.418,101.934A128,128,0,0,1-121.946-38.9,128,128,0,0,1-4.089-127.935V-82.9A83,83,0,0,0-79.074-25.225,83,83,0,0,0-51.339,65.217Z" transform="translate(128.504 127.596)" fill="#938a19"/>
    </g>
  </g>
</svg>
