<svg xmlns="http://www.w3.org/2000/svg" xmlns:xlink="http://www.w3.org/1999/xlink" width="445.436" height="255.869" viewBox="0 0 445.436 255.869">
  <defs>
    <filter id="Ellipse_2410" x="262.436" y="63.936" width="34" height="34" filterUnits="userSpaceOnUse">
      <feOffset dy="3" input="SourceAlpha"/>
      <feGaussianBlur stdDeviation="3" result="blur"/>
      <feFlood flood-opacity="0.161"/>
      <feComposite operator="in" in2="blur"/>
      <feComposite in="SourceGraphic"/>
    </filter>
    <filter id="Ellipse_2718" x="262.436" y="95.936" width="34" height="34" filterUnits="userSpaceOnUse">
      <feOffset dy="3" input="SourceAlpha"/>
      <feGaussianBlur stdDeviation="3" result="blur-2"/>
      <feFlood flood-opacity="0.161"/>
      <feComposite operator="in" in2="blur-2"/>
      <feComposite in="SourceGraphic"/>
    </filter>
    <filter id="Ellipse_2719" x="262.436" y="131.936" width="34" height="34" filterUnits="userSpaceOnUse">
      <feOffset dy="3" input="SourceAlpha"/>
      <feGaussianBlur stdDeviation="3" result="blur-3"/>
      <feFlood flood-opacity="0.161"/>
      <feComposite operator="in" in2="blur-3"/>
      <feComposite in="SourceGraphic"/>
    </filter>
    <filter id="Ellipse_2720" x="262.436" y="164.936" width="34" height="34" filterUnits="userSpaceOnUse">
      <feOffset dy="3" input="SourceAlpha"/>
      <feGaussianBlur stdDeviation="3" result="blur-4"/>
      <feFlood flood-opacity="0.161"/>
      <feComposite operator="in" in2="blur-4"/>
      <feComposite in="SourceGraphic"/>
    </filter>
  </defs>
  <g id="Group_29257" data-name="Group 29257" transform="translate(-161.605 -358.064)">
    <g id="Group_29255" data-name="Group 29255" transform="translate(161.036 358.403)">
      <g id="Group_26333" data-name="Group 26333" transform="translate(104.004 88.996)">
        <text id="_132" data-name="132" transform="translate(24 68.1)" fill="#939393" font-size="42" font-family="Lato-Bold, Lato" font-weight="700"><tspan x="-36.54" y="0">132</tspan></text>
        <text id="Total" transform="translate(25 22.1)" fill="#555" font-size="22" font-family="Lato-Bold, Lato" font-weight="700"><tspan x="-23.892" y="0">Total</tspan></text>
      </g>
    </g>
    <g id="Group_29256" data-name="Group 29256">
      <g id="Group_24011" data-name="Group 24011" transform="translate(433.04 428.264)">
        <text id="Google_Chrome" data-name="Google Chrome" transform="translate(23.001 12.737)" fill="#43425d" font-size="14" font-family="Lato-Semibold, Lato" font-weight="600"><tspan x="0" y="0">Customer </tspan><tspan y="0" fill="#000">(54)</tspan></text>
        <text id="Google_Chrome-2" data-name="Google Chrome" transform="translate(23.001 44.737)" fill="#43425d" font-size="14" font-family="Lato-Semibold, Lato" font-weight="600"><tspan x="0" y="0">Returned from MPF </tspan><tspan y="0" fill="#000">(10)</tspan></text>
        <text id="Google_Chrome-3" data-name="Google Chrome" transform="translate(23.001 80.737)" fill="#43425d" font-size="14" font-family="Lato-Semibold, Lato" font-weight="600"><tspan x="0" y="0">Elevated to MPF </tspan><tspan y="0" fill="#000">(36)</tspan></text>
        <text id="Google_Chrome-4" data-name="Google Chrome" transform="translate(23.001 113.737)" fill="#43425d" font-size="14" font-family="Lato-Semibold, Lato" font-weight="600"><tspan x="0" y="0">Unassigned </tspan><tspan y="0" fill="#000">(32)</tspan></text>
        <g transform="matrix(1, 0, 0, 1, -271.43, -70.2)" filter="url(#Ellipse_2410)">
          <g id="Ellipse_2410-2" data-name="Ellipse 2410" transform="translate(271.44 69.94)" fill="#3d4479" stroke="#fff" stroke-width="3">
            <circle cx="8" cy="8" r="8" stroke="none"/>
            <circle cx="8" cy="8" r="6.5" fill="none"/>
          </g>
        </g>
        <g transform="matrix(1, 0, 0, 1, -271.43, -70.2)" filter="url(#Ellipse_2718)">
          <g id="Ellipse_2718-2" data-name="Ellipse 2718" transform="translate(271.44 101.94)" fill="#0069aa" stroke="#fff" stroke-width="3">
            <circle cx="8" cy="8" r="8" stroke="none"/>
            <circle cx="8" cy="8" r="6.5" fill="none"/>
          </g>
        </g>
        <g transform="matrix(1, 0, 0, 1, -271.43, -70.2)" filter="url(#Ellipse_2719)">
          <g id="Ellipse_2719-2" data-name="Ellipse 2719" transform="translate(271.44 137.94)" fill="#9a6042" stroke="#fff" stroke-width="3">
            <circle cx="8" cy="8" r="8" stroke="none"/>
            <circle cx="8" cy="8" r="6.5" fill="none"/>
          </g>
        </g>
        <g transform="matrix(1, 0, 0, 1, -271.43, -70.2)" filter="url(#Ellipse_2720)">
          <g id="Ellipse_2720-2" data-name="Ellipse 2720" transform="translate(271.44 170.94)" fill="#b49f00" stroke="#fff" stroke-width="3">
            <circle cx="8" cy="8" r="8" stroke="none"/>
            <circle cx="8" cy="8" r="6.5" fill="none"/>
          </g>
        </g>
      </g>
      <g id="Ring_Chart0" data-name="Ring Chart0" transform="translate(-1 111)">
        <path id="Path_20215" data-name="Path 20215" d="M4.089-127.935A128,128,0,0,1,121.083-41.507,128,128,0,0,1,81.718,98.52L54.088,62.956A83,83,0,0,0,78.515-26.915,83,83,0,0,0,4.089-82.9Z" transform="translate(290.54 374.999)" fill="#3d4479"/>
        <path id="Path_20216" data-name="Path 20216" d="M75.259,103.538a128,128,0,0,1-71.17,24.4V82.9A83,83,0,0,0,47.63,67.974Z" transform="translate(290.54 374.999)" fill="#0069aa"/>
        <path id="Path_20217" data-name="Path 20217" d="M-4.089,127.935A128,128,0,0,1-127.935,4.089H-82.9A83,83,0,0,0-4.089,82.9Z" transform="translate(290.54 374.999)" fill="#9a6042"/>
        <path id="Path_20218" data-name="Path 20218" d="M-127.935-4.089A128,128,0,0,1-4.089-127.935V-82.9A83,83,0,0,0-82.9-4.089Z" transform="translate(290.54 374.999)" fill="#b49f00"/>
      </g>
    </g>
  </g>
</svg>
